<?xml version="1.0" encoding="utf-8"?>
<!-- Generator: Adobe Illustrator 19.0.0, SVG Export Plug-In . SVG Version: 6.00 Build 0)  -->
<svg version="1.1" id="Layer_1" xmlns="http://www.w3.org/2000/svg" xmlns:xlink="http://www.w3.org/1999/xlink" x="0px" y="0px"
	 viewBox="0 0 1024 1024" style="enable-background:new 0 0 1024 1024;" xml:space="preserve">
<style type="text/css">
	.st0{fill:#303030;}
	.st1{fill:#FFFFFF;}
</style>
<path id="XMLID_1_" class="st0" d="M754.6,169.4H269.4c-55.2,0-100,44.8-100,100v485.1c0,55.2,44.8,100,100,100h485.1
	c55.2,0,100-44.8,100-100V269.4C854.6,214.2,809.8,169.4,754.6,169.4z"/>
<g id="XMLID_2_">
	<rect id="XMLID_3_" x="351.3" y="276.9" class="st1" width="110.6" height="110.6"/>
	<rect id="XMLID_4_" x="351.3" y="415.2" class="st1" width="110.6" height="331.9"/>
	<path id="XMLID_10_" class="st1" d="M489.6,276.9v110.6c68.6,0,124.5,55.8,124.5,124.5c0,68.6-55.8,124.5-124.5,124.5v110.6
		c129.6,0,235.1-105.5,235.1-235.1S619.2,276.9,489.6,276.9z"/>
</g>
</svg>
